<svg width="800" height="800" viewBox="0 0 800 800" fill="none" xmlns="http://www.w3.org/2000/svg">
    <path d="M633.333 166.667L700 233.333L611.667 321.667V371.667C611.667 488.333 516.667 583.333 400 583.333C375 583.333 350.833 579.167 328.333 571.667L276.667 623.333C314.167 640 355.833 650 400 650C420.833 650 438.333 667.5 438.333 688.333V733.333H361.667V688.333C361.667 667.5 344.167 650 323.333 650C249.167 650 181.667 619.167 133.333 570.833C85 522.5 54.1667 455 54.1667 380.833C54.1667 360 71.6667 342.5 92.5 342.5H137.5C158.333 342.5 175.833 360 175.833 380.833C175.833 432.5 196.667 479.167 229.167 513.333L283.333 459.167C251.667 449.167 228.333 428.333 215 401.667L100 516.667L33.3333 450L633.333 166.667Z" fill="white"/>
    <path d="M483.333 195V421.667C483.333 465.833 465.833 505.833 436.667 533.333H463.333C534.167 533.333 591.667 475.833 591.667 405V321.667L483.333 195Z" fill="white"/>
    <path d="M400 66.6667C329.167 66.6667 271.667 124.167 271.667 195V405C271.667 408.333 271.667 411.667 272.5 415L528.333 195C520 122.5 465.833 66.6667 400 66.6667Z" fill="white"/>
</svg> 