<svg width="800" height="800" viewBox="0 0 800 800" fill="none" xmlns="http://www.w3.org/2000/svg">
    <path d="M400 533.333C470.833 533.333 528.333 475.833 528.333 405V195C528.333 124.167 470.833 66.6667 400 66.6667C329.167 66.6667 271.667 124.167 271.667 195V405C271.667 475.833 329.167 533.333 400 533.333Z" fill="white"/>
    <path d="M591.667 405C591.667 475.833 534.167 533.333 463.333 533.333H436.667C465.833 505.833 483.333 465.833 483.333 421.667V195C483.333 149.167 465.833 109.167 436.667 81.6667H463.333C534.167 81.6667 591.667 139.167 591.667 210V405Z" fill="white"/>
    <path d="M208.333 405C208.333 475.833 265.833 533.333 336.667 533.333H363.333C334.167 505.833 316.667 465.833 316.667 421.667V195C316.667 149.167 334.167 109.167 363.333 81.6667H336.667C265.833 81.6667 208.333 139.167 208.333 210V405Z" fill="white"/>
    <path d="M400 583.333C283.333 583.333 188.333 488.333 188.333 371.667V305H233.333V371.667C233.333 463.333 308.333 538.333 400 538.333C491.667 538.333 566.667 463.333 566.667 371.667V305H611.667V371.667C611.667 488.333 516.667 583.333 400 583.333Z" fill="white"/>
    <path d="M400 733.333C379.167 733.333 361.667 715.833 361.667 695V583.333H438.333V695C438.333 715.833 420.833 733.333 400 733.333Z" fill="white"/>
</svg> 